# xmcd
#
# Track frame offsets: 
#        150
#        30475
#        44960
#        57505
#        69225
#        78738
#        105770
#        120633
#        134120
#        149333
#
# Disc length: 2153 seconds
#
# Revision: 5
# Processed by: cddbd v1.5.2PL0 Copyright (c) Steve Scherf et al.
# Submitted via: ExactAudioCopyFreeDBPlugin 1.0
#
DISCID=9308670a
DTITLE=Poco - Rose of Cimarron
DYEAR=1976
DGENRE=Country
TTITLE0=Rose of Cimarron
TTITLE1=Stealaway
TTITLE2=Just like me
TTITLE3=Company's comin'
TTITLE4=Slow poke
TTITLE5=Too many nights too long
TTITLE6=P.N.S. (When you come around)
TTITLE7=Starin' at the sky
TTITLE8=All alone together
TTITLE9=Tulsa turnaround
EXTD=YEAR: 1989
EXTT0=
EXTT1=
EXTT2=
EXTT3=
EXTT4=
EXTT5=
EXTT6=
EXTT7=
EXTT8=
EXTT9=
PLAYORDER=
